# xmcd
#
# Track frame offsets: 
#        150
#        13514
#        31019
#        47820
#        66017
#        84617
#        101715
#        112938
#        127742
#        141484
#
# Disc length: 2856 seconds
#
# Revision: 0
# Processed by: cddbd v1.5.2PL0 Copyright (c) Steve Scherf et al.
# Submitted via: ExactAudioCopy v0.99pb3
#
DISCID=7b0b260a
DTITLE=Tete a Toto - Le temps de nos passe temps
DYEAR=2009
DGENRE=Chanson
TTITLE0=Apapaie
TTITLE1=La rue m'a vu
TTITLE2=Petit bonhomme
TTITLE3=Le cabaret joli
TTITLE4=Je t'aime toi reine
TTITLE5=Ou sont passes les passe
TTITLE6=Je suis fier
TTITLE7=Les complications
TTITLE8=La marche nuptiale
TTITLE9=Les projets
EXTD=
EXTT0=
EXTT1=
EXTT2=
EXTT3=
EXTT4=
EXTT5=
EXTT6=
EXTT7=
EXTT8=
EXTT9=
PLAYORDER=
